<svg width="162" height="50" viewBox="0 0 162 50" fill="none" xmlns="http://www.w3.org/2000/svg">
<path d="M12.9414 42.0635V14.9801H20.6269V10.5655H0.247925V14.9801H7.88386V42.0635H12.9414ZM39.8159 14.7321C40.1465 14.7982 40.3283 14.9801 40.3614 15.2778V37.3512C40.2953 37.6819 40.1134 37.8637 39.8159 37.8968H28.8579C28.5273 37.8307 28.3455 37.6488 28.3125 37.3512V15.2778C28.3785 14.9471 28.5604 14.7652 28.8579 14.7321H39.8159ZM23.1557 36.0615C23.1557 39.7321 24.8581 41.8155 28.2629 42.3115C28.891 42.4107 29.5686 42.4603 30.2958 42.4603H38.378C42.5431 42.4603 44.89 40.873 45.4189 37.6984C45.485 37.1693 45.5181 36.6236 45.5181 36.0615V16.5674C45.5181 13.0291 43.9645 10.9623 40.8572 10.3671C40.0969 10.2348 39.2705 10.1686 38.378 10.1686H30.2958C26.296 10.1686 23.9821 11.6236 23.3541 14.5337C23.2218 15.1621 23.1557 15.8399 23.1557 16.5674V36.0615ZM57.1703 42.0635L57.1207 30.4563H65.2525C69.087 30.4563 71.467 29.0178 72.3926 26.1409C72.657 25.3141 72.7893 24.4378 72.7893 23.5119V17.1627C72.7893 12.7645 70.5084 10.4994 65.9467 10.3671C65.6823 10.3671 65.4509 10.3671 65.2525 10.3671L52.0632 10.5655V42.0635H57.1703ZM66.9384 14.7817C67.335 14.8478 67.5499 15.0628 67.583 15.4266V25.3968C67.5169 25.7936 67.302 26.0086 66.9384 26.0417H57.1207V14.7817H66.9384Z" fill="black"/>
<path d="M96.8665 24.3552H85.363V14.9802H97.759V10.5655H80.3054V42.0635H85.363V28.7203H96.8665V24.3552ZM106.932 42.0635V10.5655H101.874V42.0635H106.932ZM129.394 37.004L136.186 10.5655H131.426L124.782 37.1032C124.649 37.4339 124.468 37.6157 124.237 37.6488H122.203L116.006 10.5655H110.998L118.287 42.0635L123.691 42.1627C125.74 42.1958 127.113 41.799 127.807 40.9722C128.369 40.2778 128.898 38.955 129.394 37.004ZM157.309 42.0635V37.6488H144.219V28.2242H156.119V23.8591H144.219V14.9802H157.061V10.5655H139.161V42.0635H157.309Z" fill="#FF0000"/>
</svg>
